/* XPM */
static char *result[] = {
/* columns rows colors chars-per-pixel */
"35 35 226 2 ",
"   c #530B00",
".  c #540F00",
"X  c #5D1809",
"o  c #7E3420",
"O  c #74382A",
"+  c #7C584D",
"@  c #796053",
"#  c #821A04",
"$  c #A21700",
"%  c #AC1F00",
"&  c #80331F",
"*  c #86341D",
"=  c #86351F",
"-  c #89351E",
";  c #AF2A08",
":  c #AF2C0F",
">  c #B22200",
",  c #B52701",
"<  c #B72700",
"1  c #B42703",
"2  c #B82500",
"3  c #B92600",
"4  c #BA2600",
"5  c #B82800",
"6  c #BA2900",
"7  c #BB2900",
"8  c #BB2A00",
"9  c #B02D0B",
"0  c #BE340C",
"q  c #B22F11",
"w  c #BF3710",
"e  c #803420",
"r  c #853520",
"t  c #843621",
"y  c #873621",
"u  c #863722",
"i  c #8C3821",
"p  c #8D3822",
"a  c #8C3A24",
"s  c #8E3A24",
"d  c #853D29",
"f  c #983B23",
"g  c #A53F26",
"h  c #C13D17",
"j  c #BF421F",
"k  c #9F422B",
"l  c #824537",
"z  c #86483B",
"x  c #974435",
"c  c #9B4231",
"v  c #AE4127",
"b  c #A14129",
"n  c #A34229",
"m  c #A3462F",
"M  c #A8452B",
"N  c #B14229",
"B  c #B7452C",
"V  c #BD452A",
"C  c #A34B34",
"Z  c #AA4F3F",
"A  c #B55034",
"S  c #C64A2E",
"D  c #CD482B",
"F  c #C64B31",
"G  c #CF4D31",
"H  c #D14C30",
"J  c #D04D31",
"K  c #D14D31",
"L  c #D24F34",
"P  c #C45235",
"I  c #D35034",
"U  c #D25336",
"Y  c #D45135",
"T  c #D55437",
"R  c #D65537",
"E  c #D75538",
"W  c #D65638",
"Q  c #D2563C",
"!  c #D75839",
"~  c #D75D3C",
"^  c #DA5B3B",
"/  c #DB5C3B",
"(  c #DC5D3B",
")  c #DB5C3C",
"_  c #DB5D3C",
"`  c #DE603E",
"'  c #DE613F",
"]  c #DF613F",
"[  c #DF623F",
"{  c #85584D",
"}  c #955C49",
"|  c #BC5840",
" . c #826254",
".. c #BB6653",
"X. c #B96656",
"o. c #BE6C58",
"O. c #827165",
"+. c #8D7E73",
"@. c #8D7F74",
"#. c #8C7E76",
"$. c #C26144",
"%. c #DF6341",
"&. c #DD714D",
"*. c #DC6B51",
"=. c #CE7159",
"-. c #D17156",
";. c #D07858",
":. c #D47B58",
">. c #D47B59",
",. c #E06340",
"<. c #E06541",
"1. c #E16542",
"2. c #E16643",
"3. c #E16743",
"4. c #E26945",
"5. c #E36D48",
"6. c #E46F49",
"7. c #E5704B",
"8. c #E4714B",
"9. c #E3714C",
"0. c #E5744D",
"q. c #E6754E",
"w. c #E77850",
"e. c #E67851",
"r. c #E77A53",
"t. c #E87D56",
"y. c #E97E57",
"u. c #E97F57",
"i. c #E77F59",
"p. c #C07D6E",
"a. c #D67F60",
"s. c #D47C63",
"d. c #8F8076",
"f. c #B68375",
"g. c #BD8073",
"h. c #E1805B",
"j. c #EA825A",
"k. c #E9845D",
"l. c #EB855D",
"z. c #EB855E",
"x. c #EB865E",
"c. c #D28566",
"v. c #DA8665",
"b. c #D48769",
"n. c #C28274",
"m. c #C28B79",
"M. c #DA8E79",
"N. c #E88660",
"B. c #E28965",
"V. c #E38A65",
"C. c #E88963",
"Z. c #EB8A63",
"A. c #EC8961",
"S. c #E98B65",
"D. c #ED8B64",
"F. c #EA8C66",
"G. c #ED8C65",
"H. c #ED8E67",
"J. c #EE8E67",
"K. c #EF8E67",
"L. c #E88D68",
"P. c #E98F6B",
"I. c #ED8F69",
"U. c #EE8F68",
"Y. c #EB9575",
"T. c #E9947B",
"R. c #E99879",
"E. c #A29387",
"W. c #BE9084",
"Q. c #AFA39A",
"!. c #B2A499",
"~. c #B5A29C",
"^. c #BBA99D",
"/. c #B9ACA2",
"(. c #D39A89",
"). c #D09A8A",
"_. c #DA9A8B",
"`. c #C8A095",
"'. c #C9A497",
"]. c #C4A29A",
"[. c #CAA198",
"{. c #DCA79B",
"}. c #DEAA9E",
"|. c #F0B19B",
" X c #C5AFA8",
".X c #D6AFA1",
"XX c #D1AFA7",
"oX c #C5B7AB",
"OX c #C9B2AC",
"+X c #DBB1A5",
"@X c #C6BFBA",
"#X c #E8AFA2",
"$X c #D0C2BE",
"%X c #D3C7BD",
"&X c #D4C8BE",
"*X c #EEC0B6",
"=X c #CCC9C6",
"-X c #D0CAC2",
";X c #D6CEC5",
":X c #D8CBC0",
">X c #D8C9C5",
",X c #DBCBC7",
"<X c #DBD3C9",
"1X c #DCD3CB",
"2X c #D7D4D2",
"3X c #DBD6D3",
"4X c #DFDBD9",
"5X c #E1D6CC",
"6X c #F0D1C6",
"7X c #F3D4CB",
"8X c #E2D5D0",
"9X c #E4DBD1",
"0X c #E5DBD2",
"qX c #E7DDD3",
"wX c #E2D9D7",
"eX c #F3DAD3",
"rX c #EBE0D6",
"tX c #EDE2D8",
"yX c #EEE3D9",
"uX c #EEE4DB",
"iX c #F4E3DE",
"pX c #F4E8DD",
"aX c #F5EAE0",
"sX c #FBEEEA",
"dX c #FDF6F3",
"fX c #242F3A",
/* pixels */
"fXfXfXfXfXfXfXfXfXfXfXfXfXfXfXfXfXfXfXfXfXfXfXfXfXfXfXfXfXfXfXfXfXfXfX",
"fXfXfXfXfXfXfXfXfXfXfXfXfXfXfXfXfXfXfXfXfXfXfXfXfXfXfXfXfXfXfXfXfXfXfX",
"fXfXfXfXfXfXfXfXfXfXfXfXfXfXfXfXfXfXfXfXfXfXfXyXfX;XfXfXfXfXfXfXfXfXfX",
"fXfXfXfXfXfXfXfXfXfXfXfXfXfXfXfXfXfXfXfXfXfXqXpXfXaX9XfXfXfXfXfXfXfXfX",
"fXfXfXfXfXfXfXfXfXfXfXfXfXfXfXfXfXfXfXfXfXfX1XuX5X%XQ.fXfXfXfXfXfXfXfX",
"fXfXfXfXfXfXfXfXfXfXfXfXfXfXfXfXfXfXfXfXfXfXfXtX/.d.#.fXfXfXfXfXfXfXfX",
"fXfXfXfXfXfXfXfXfXfXfXfXfXfXfXfXfXfXfXfXfXfXfX:X@.fXfXfXfXfXfXfXfXfXfX",
"fXfXfXfXfXfXfXfXfXfXfXfXfXfXfXfXfXfXfXfXfXfX0X!.fXfXfXfXfXfXfXfXfXfXfX",
"fXfXfXfXfXfXfXfXfXfXfXfXfXfXfXfXfXfXfXfXfXfX&X+.fXfXfXfXfXfXfXfXfXfXfX",
"fXfXfXfXfXfXfXfXfXfXfXfXfXfXfXfXfXfXfXfXfXtXoXfXfXfXfXfXfXfXfXfXfXfXfX",
"fXfXfXfXfXfXfXfXfXfXfXfXfXfXfXfXfXfXfXfX-XrXE.fXfXfXfXfXfXfXfXfXfXfXfX",
"fXfXfXfXfXfXfXfXfXfXfXfXfXfXfXfXfXfXfX$.m.^.O.fXfXfXfXfXfXfXfXfXfXfXfX",
"fXfXfXfXfXfXfXfXfXfXfXfXfXfXfXfXfX;.&.3.~ } fXfXfXfXfXfXfXfXfXfXfXfXfX",
"fXfXfXfXfXfXfXfXfXfXfXfXfXfXv.B.C.y.7.1._ C fXfXfXfXfXfXfXfXfXfXfXfXfX",
"fXfXfXfXfXfXfXfXfXfXfXfXb.L.K.K.A.r.5.,.P a fXfXfXfXfXfXfXfXfXfXfXfXfX",
"fXfXfXfXfXfXfXfXfXfXfXc.P.U.J.G.j.0.4.' M e fXfXfXfXfXfXfXfXfXfXfXfXfX",
"fXfXfXfXfXfXfXfXfXfXfXV.I.J.G.z.r.5.<._ n fXfXfXfXfXfXfXfXfXfXfXfXfXfX",
"fXfXfXfXfXfXfXfXfXfX>.F.H.D.x.t.8.2.` ! b fXfXfXfXfXfXfXfXfXfXfXfXfXfX",
"fXfXfXfXfXfXfXfXfXfX:.S.Z.l.u.q.4.] ^ U k fXfXfXfXfXfXfXfXfXfXfXfXfXfX",
"fXfXfXfXfXfXfXfXfXfXh.N.k.u.w.5.[ / E F s fXfXfXfXfXfXfXfXfXfXfXfXfXfX",
"fXfXfXfXfXfXfXfXfXa.R.Y.i.e.6.%.^ W Y B t fXfXfXfXfXfXfXfXfXfXfXfXfXfX",
"fXfXfXfXfXfXfXfXfX6XdXsX|.9.3.) T I J g o fXfXfXfXfXfXfXfXfXfXfXfXfXfX",
"fXfXfXfXfXfXfXfXfXiXM.s.eXT.( R L G N p fXfXfXfXfXfXfXfXfXfXfXfXfXfXfX",
"fXfXfXfXfXfXfXfX8X-.4 2 =.7X*.K H V i r fXfXfXfXfXfXfXfXfXfXfXfXfXfXfX",
"fXfXfXfXfXfXfXfX+Xh 7 5 1 _.*XQ D v y e fXfXfXfXfXfXfXfXfXfXfXfXfXfXfX",
"fXfXfXfXfXfXfXfX(.0 8 < > q }.#XS f r fXfXfXfXfXfXfXfXfXfXfXfXfXfXfXfX",
"fXfXfXfXfXfXfXfX).w 6 , ; % : {.o.- & fXfXfXfXfXfXfXfXfXfXfXfXfXfXfXfX",
"fXfXfXfXfXfXfXfXfXj 3 A .Xm $ X.f.* fXfXfXfXfXfXfXfXfXfXfXfXfXfXfXfXfX",
"fXfXfXfXfXfXfXfXfX| 9 '.<X .# Z W.= fXfXfXfXfXfXfXfXfXfXfXfXfXfXfXfXfX",
"fXfXfXfXfXfXfXfXfXp...4X@X@ X x `.u fXfXfXfXfXfXfXfXfXfXfXfXfXfXfXfXfX",
"fXfXfXfXfXfXfXfXfXfXn.$X=X+ . z XXd fXfXfXfXfXfXfXfXfXfXfXfXfXfXfXfXfX",
"fXfXfXfXfXfXfXfXfXfX].[. XO   { ,XfXfXfXfXfXfXfXfXfXfXfXfXfXfXfXfXfXfX",
"fXfXfXfXfXfXfXfXfXfXfXOXg.c l ~.3XfXfXfXfXfXfXfXfXfXfXfXfXfXfXfXfXfXfX",
"fXfXfXfXfXfXfXfXfXfXfXfXfX>XwX2XfXfXfXfXfXfXfXfXfXfXfXfXfXfXfXfXfXfXfX",
"fXfXfXfXfXfXfXfXfXfXfXfXfXfXfXfXfXfXfXfXfXfXfXfXfXfXfXfXfXfXfXfXfXfXfX"
};
